<svg width="2316" height="140" viewBox="0 0 2316 140" fill="none" xmlns="http://www.w3.org/2000/svg">
<path d="M6.0332 42.9192C54.755 49.9431 221.411 88.8594 298.364 85.0627C375.317 81.266 415.843 23.1763 467.752 20.1389C519.661 17.1016 573.847 68.9267 609.819 66.8385C645.791 64.7503 643.059 -3.40068 683.585 7.60978C724.11 18.6202 813.358 126.827 852.973 132.901C892.588 138.976 831.571 58.8654 921.274 44.0582C1010.98 29.251 1269.16 47.8549 1391.19 44.0582C1513.22 40.2615 1586.53 22.6068 1653.47 21.2779C1720.4 19.9491 1683.52 34.3766 1792.8 36.0851C1902.08 37.7936 2223.1 32.2884 2309.16 31.5291" stroke="url(#paint0_linear_97_2673)" stroke-width="12" stroke-linecap="round"/>
<defs>
<linearGradient id="paint0_linear_97_2673" x1="6.0332" y1="6.40698" x2="2309.16" y2="6.40698" gradientUnits="userSpaceOnUse">
<stop stop-color="#E21D1D"/>
<stop offset="1" stop-color="#F3E0A5"/>
</linearGradient>
</defs>
</svg>
