<svg width="1281" height="91" viewBox="0 0 1281 91" fill="none" xmlns="http://www.w3.org/2000/svg">
<path d="M2.78711 59.3094C63.277 60.2421 312.894 72.6786 365.727 64.9058C418.56 57.133 322.082 22 319.785 12.6726C317.488 3.34525 324.379 -3.65027 351.944 8.94166C379.509 21.5336 467.309 82.0059 485.175 88.2242C503.041 94.4424 400.438 54.0239 459.141 46.2511C517.845 38.4783 749.85 42.0538 837.395 41.5874C924.939 41.121 960.672 38.9447 984.408 43.4529C1008.14 47.9611 967.308 69.7249 979.814 68.6367C992.32 67.5485 1009.68 43.142 1059.45 36.9237C1109.22 30.7055 1241.94 32.2601 1278.44 31.3273" stroke="url(#paint0_linear_16_599)" stroke-width="4" stroke-linecap="round"/>
<defs>
<linearGradient id="paint0_linear_16_599" x1="2.78711" y1="2.12305" x2="1278.44" y2="2.12305" gradientUnits="userSpaceOnUse">
<stop stop-color="#EBCE3F"/>
<stop offset="1" stop-color="#097C3E"/>
</linearGradient>
</defs>
</svg>
