<svg width="24" height="24" viewBox="0 0 24 24" fill="none" xmlns="http://www.w3.org/2000/svg">
<path d="M12 4C10.4178 4 8.87103 4.46919 7.55544 5.34824C6.23985 6.22729 5.21447 7.47672 4.60897 8.93853C4.00347 10.4003 3.84504 12.0089 4.15372 13.5607C4.4624 15.1126 5.22433 16.538 6.34315 17.6569C7.46197 18.7757 8.88743 19.5376 10.4393 19.8463C11.9911 20.155 13.5997 19.9965 15.0615 19.391C16.5233 18.7855 17.7727 17.7602 18.6518 16.4446C19.5308 15.129 20 13.5822 20 12C19.9975 9.87904 19.1538 7.84566 17.6541 6.34591C16.1543 4.84616 14.121 4.0025 12 4ZM12 18.5455C10.7054 18.5455 9.43994 18.1616 8.36354 17.4423C7.28715 16.7231 6.4482 15.7009 5.95279 14.5048C5.45738 13.3088 5.32776 11.9927 5.58032 10.723C5.83288 9.45335 6.45627 8.28706 7.37167 7.37166C8.28707 6.45627 9.45335 5.83287 10.723 5.58031C11.9927 5.32776 13.3088 5.45738 14.5048 5.95279C15.7009 6.4482 16.7231 7.28715 17.4423 8.36354C18.1616 9.43993 18.5455 10.7054 18.5455 12C18.5433 13.7353 17.853 15.3989 16.626 16.626C15.3989 17.853 13.7353 18.5433 12 18.5455ZM12 15.2727C12.4017 15.2727 12.7273 15.5983 12.7273 16C12.7273 16.4017 12.4017 16.7273 12 16.7273C11.5983 16.7273 11.2727 16.4017 11.2727 16C11.2727 15.5983 11.5983 15.2727 12 15.2727ZM14.9091 10.1818C14.9099 10.618 14.8122 11.0487 14.6233 11.4418C14.4344 11.835 14.1592 12.1804 13.8182 12.4524C13.2673 12.8792 12.8948 13.4956 12.7731 14.1818H11.2953C11.3596 13.6211 11.5355 13.079 11.8127 12.5873C12.0898 12.0957 12.4626 11.6645 12.9091 11.3193C13.0883 11.1759 13.231 10.9921 13.3255 10.783C13.4201 10.5739 13.4638 10.3454 13.4532 10.1162C13.4426 9.88698 13.3778 9.66352 13.2643 9.46408C13.1508 9.26465 12.9917 9.09491 12.8 8.96873C12.5864 8.82909 12.3406 8.74643 12.086 8.72861C11.8314 8.71079 11.5765 8.7584 11.3455 8.86691C11.0991 8.98501 10.8923 9.17216 10.7502 9.4056C10.6082 9.63903 10.5371 9.9087 10.5455 10.1818C10.5455 10.3747 10.4688 10.5597 10.3324 10.6961C10.1961 10.8325 10.0111 10.9091 9.81818 10.9091C9.6253 10.9091 9.44031 10.8325 9.30392 10.6961C9.16753 10.5597 9.09091 10.3747 9.09091 10.1818C9.08009 9.62286 9.23431 9.07312 9.53429 8.60136C9.83427 8.1296 10.2667 7.75675 10.7775 7.52945C11.2302 7.32711 11.7266 7.24203 12.221 7.28207C12.7153 7.32211 13.1915 7.48597 13.6058 7.75855C14.0061 8.02356 14.3347 8.38353 14.5621 8.80636C14.7895 9.22918 14.9087 9.70172 14.9091 10.1818Z" fill="#ffffff"/>
</svg>
