<svg width="1665" height="107" viewBox="0 0 1665 107" fill="none" xmlns="http://www.w3.org/2000/svg">
<path d="M0.759766 52.9939C0.759766 52.9939 2.8573 50.4033 7.05237 45.222C11.2474 40.0408 19.5513 37.4456 31.9638 37.4365C44.3763 37.4274 56.8022 37.4203 69.2414 37.4153C81.6805 37.4102 93.7145 37.3917 105.343 37.3599C116.972 37.328 127.838 37.2798 137.941 37.2154C148.043 37.1509 157.669 37.0489 166.817 36.9093C175.965 36.7696 185.103 36.3878 194.23 35.764C203.357 35.1401 212.742 33.9481 222.385 32.1879C232.028 30.4278 241.37 28.1937 250.411 25.4857C259.452 22.7777 268.666 19.6046 278.052 15.9664C287.438 12.3282 296.173 8.80855 304.256 5.40748C312.339 2.00642 320.936 0.388717 330.046 0.55439C339.155 0.720062 347.588 3.41455 355.345 8.63788C363.101 13.8612 370.031 19.2665 376.136 24.8538C382.242 30.4411 388.356 36.161 394.48 42.0134C400.604 47.8659 406.831 53.7183 413.163 59.5706C419.495 65.423 427.553 68.0201 437.338 67.3621C447.122 66.704 457.11 64.0453 467.302 59.3857C477.493 54.7262 487.22 50.514 496.481 46.749C505.742 42.984 515.033 39.8136 524.352 37.2378C533.671 34.662 543.593 32.6139 554.118 31.0936C564.643 29.5732 576.925 28.4685 590.965 27.7795C605.005 27.0904 618.556 26.7341 631.617 26.7104C644.678 26.6868 659.677 26.852 676.612 27.206C693.547 27.56 706.565 27.8157 715.667 27.9732C724.768 28.1306 734.069 28.2647 743.57 28.3755C753.07 28.4863 762.84 28.5792 772.88 28.6542C782.92 28.7292 793.187 28.791 803.68 28.8396C814.174 28.8882 824.653 28.9273 835.118 28.9569C845.584 28.9866 855.73 29.0096 865.558 29.026C875.387 29.0424 884.999 29.0544 894.395 29.0618C903.791 29.0693 913.006 29.0738 922.038 29.0753C931.071 29.0769 943.354 28.9815 958.889 28.7892C974.423 28.5969 988.341 28.3309 1000.64 27.9912C1012.95 27.6514 1023.78 27.3149 1033.14 26.9814C1042.5 26.6479 1051.88 26.288 1061.28 25.9016C1070.68 25.5152 1079.91 25.137 1088.95 24.767C1098 24.397 1109.32 24.2169 1122.92 24.2268C1136.52 24.2366 1151.48 24.5127 1167.82 25.0549C1184.15 25.5971 1197.47 25.9969 1207.78 26.2544C1218.09 26.5119 1228.91 26.738 1240.24 26.9329C1251.57 27.1277 1263.06 27.2574 1274.7 27.3221C1286.34 27.3868 1298.12 27.3584 1310.03 27.237C1321.94 27.1156 1334 26.9574 1346.22 26.7625C1358.43 26.5675 1370.55 26.3433 1382.56 26.0898C1394.58 25.8363 1406.2 25.5593 1417.42 25.2589C1428.65 24.9584 1439.44 24.6391 1449.8 24.3009C1460.16 23.9626 1470.03 23.6488 1479.4 23.3594C1488.77 23.07 1501.44 22.6242 1517.41 22.0222C1533.38 21.4201 1547.56 20.7873 1559.95 20.1236C1572.34 19.46 1583.1 18.8437 1592.25 18.2746C1601.4 17.7055 1610.57 17.117 1619.75 16.5092C1628.94 15.9014 1635.57 15.4623 1639.63 15.1919C1643.7 14.9214 1646.71 14.8878 1648.66 15.0912C1650.62 15.2946 1652.48 15.7394 1654.25 16.4257C1656.02 17.112 1657.6 18.0038 1659 19.1012C1660.4 20.1986 1661.54 21.444 1662.42 22.8376C1663.31 24.2312 1663.89 25.6998 1664.16 27.2437C1664.44 28.7875 1664.39 30.3257 1664.03 31.8582C1663.67 33.3907 1663.01 34.8373 1662.04 36.198C1661.08 37.5586 1659.87 38.7622 1658.41 39.8086C1656.95 40.855 1655.32 41.6894 1653.51 42.312C1651.7 42.9346 1649.82 43.3126 1647.85 43.4462C1645.89 43.5797 1643.95 43.4618 1642.04 43.0924C1640.12 42.7229 1638.33 42.1213 1636.67 41.2875C1635 40.4538 1633.55 39.4315 1632.31 38.2207C1631.07 37.0099 1630.1 35.674 1629.41 34.213C1628.73 32.752 1628.35 31.2423 1628.29 29.6839C1628.23 28.1256 1628.48 26.6002 1629.05 25.1078C1629.62 23.6153 1630.48 22.234 1631.62 20.9637C1632.76 19.6934 1634.13 18.6006 1635.73 17.6854C1637.32 16.7703 1639.06 16.0806 1640.94 15.6164C1642.82 15.1521 1644.75 14.9377 1646.72 14.973C1648.69 15.0084 1650.6 15.2916 1652.45 15.8228C1654.31 16.354 1656 17.1053 1657.54 18.0768C1659.08 19.0482 1660.39 20.1889 1661.46 21.4989C1662.53 22.8089 1663.3 24.2195 1663.79 25.7309C1664.27 27.2422 1664.44 28.7752 1664.29 30.3297C1664.13 31.8842 1663.67 33.3788 1662.9 34.8137C1662.13 36.2486 1661.09 37.5485 1659.78 38.7136C1658.47 39.8786 1656.96 40.8477 1655.25 41.6209C1653.54 42.3941 1651.72 42.9309 1649.78 43.2313C1647.85 43.5317 1646.89 43.6819 1646.89 43.6819C1646.89 43.6819 1644.85 43.6488 1640.77 43.5826C1636.69 43.5165 1630.05 43.4169 1620.85 43.2838C1611.64 43.1507 1602.46 43.0417 1593.3 42.9568C1584.15 42.8719 1573.37 42.8396 1560.97 42.8598C1548.57 42.8799 1534.41 43.0718 1518.47 43.4354C1502.54 43.7989 1489.9 44.1476 1480.56 44.4813C1471.22 44.815 1461.34 45.183 1450.93 45.5853C1440.51 45.9876 1429.67 46.3823 1418.39 46.7695C1407.12 47.1566 1395.45 47.5358 1383.4 47.907C1371.35 48.2782 1359.21 48.6413 1346.96 48.9963C1334.71 49.3513 1322.56 49.6987 1310.5 50.0384C1298.45 50.3782 1286.56 50.662 1274.83 50.8899C1263.1 51.1178 1251.57 51.3299 1240.24 51.5262C1228.91 51.7226 1218.09 51.9505 1207.78 52.2098C1197.48 52.4691 1184.16 52.8723 1167.83 53.4193C1151.49 53.9662 1136.54 54.2502 1122.96 54.2712C1109.38 54.2922 1098.08 54.1366 1089.04 53.8043C1080 53.4719 1070.79 53.1347 1061.38 52.7925C1051.98 52.4503 1042.6 52.1351 1033.24 51.8467C1023.87 51.5584 1013.04 51.2762 1000.74 51.0002C988.44 50.7242 974.524 50.535 958.993 50.4327C943.462 50.3303 931.183 50.309 922.155 50.3686C913.128 50.4282 903.92 50.4962 894.53 50.5726C885.14 50.6491 875.534 50.7365 865.712 50.8349C855.891 50.9334 845.753 51.0461 835.299 51.1732C824.845 51.3002 814.381 51.4459 803.906 51.6103C793.431 51.7746 783.186 51.9631 773.172 52.1757C763.157 52.3883 753.417 52.6317 743.949 52.906C734.482 53.1803 725.217 53.4934 716.155 53.8451C707.093 54.1968 694.201 54.8023 677.477 55.6616C660.753 56.5209 646.036 57.2955 633.323 57.9854C620.611 58.6754 609.648 59.3373 600.435 59.9714C591.223 60.6055 581.82 61.4796 572.229 62.5939C562.638 63.7081 552.796 65.5532 542.703 68.1291C532.611 70.7051 523.76 73.5858 516.151 76.7714C508.542 79.957 500.542 83.5609 492.153 87.583C483.764 91.6051 475.696 95.1997 467.95 98.367C460.204 101.534 451.13 103.887 440.727 105.426C430.325 106.964 420.843 106.064 412.28 102.725C403.718 99.3853 396.475 95.1598 390.551 90.0481C384.628 84.9364 378.887 79.7756 373.329 74.5656C367.771 69.3556 361.887 63.872 355.677 58.1146C349.467 52.3573 343.417 46.6847 337.526 41.0968C331.636 35.509 324.588 34.324 316.382 37.5418C308.175 40.7596 299.948 43.8762 291.699 46.8918C283.451 49.9073 274.011 52.9719 263.381 56.0855C252.751 59.1992 241.73 61.7793 230.318 63.8259C218.906 65.8725 207.977 67.2176 197.531 67.8612C187.085 68.5048 177.068 68.8377 167.478 68.86C157.889 68.8822 148.043 68.8612 137.941 68.7967C127.838 68.7323 116.972 68.6841 105.343 68.6522C93.7145 68.6203 81.6805 68.6019 69.2414 68.5968C56.8022 68.5918 44.3763 68.5847 31.9638 68.5756C19.5513 68.5665 11.2474 65.9713 7.05237 60.79C2.8573 55.6088 0.759766 53.0141 0.759766 53.006V52.9939Z" fill="#B3331A"/>
</svg>
