<svg width="1623" height="99" viewBox="0 0 1623 99" fill="none" xmlns="http://www.w3.org/2000/svg">
<path d="M0.885742 67.739C0.885742 67.739 3.0024 66.1246 7.23574 62.896C11.4691 59.6674 16.6734 56.5173 22.8488 53.4459C29.0242 50.3744 34.6776 47.6967 39.8091 45.4128C44.9405 43.1288 49.896 40.9321 54.6754 38.8226C59.4548 36.7131 64.2573 34.641 69.0829 32.6064C73.9084 30.5718 78.7775 28.573 83.6901 26.6101C88.6027 24.6472 93.4342 22.8128 98.1845 21.1067C102.935 19.4006 108.041 17.7301 113.504 16.0952C118.967 14.4603 125.364 12.6332 132.695 10.6139C140.027 8.5946 147.104 6.83752 153.928 5.3426C160.751 3.84768 167.822 2.73019 175.139 1.99015C182.457 1.25011 189.242 0.836374 195.495 0.748937C201.748 0.6615 207.862 1.02882 213.835 1.85087C219.809 2.67292 225.27 4.0799 230.218 6.07181C235.167 8.06373 239.628 10.4682 243.602 13.2852C247.575 16.1023 251.107 19.1212 254.195 22.3419C257.283 25.5626 260.188 28.6788 262.909 31.6903C265.629 34.7018 267.81 37.7757 269.449 40.9118C271.089 44.0479 272.698 47.1991 274.278 50.3653C275.858 53.5316 277.461 56.8923 279.089 60.4474C280.717 64.0025 284.775 65.6117 291.263 65.2748C297.752 64.9379 304.06 64.5191 310.188 64.0184C316.316 63.5177 325.324 62.7738 337.212 61.7866C349.1 60.7994 358.371 59.952 365.025 59.2444C371.678 58.5369 378.799 57.7905 386.387 57.0052C393.975 56.2199 402 55.4247 410.461 54.6194C418.922 53.8141 427.492 53.0135 436.169 52.2174C444.847 51.4212 454.2 50.6305 464.228 49.8452C474.256 49.0599 485.049 48.308 496.606 47.5894C508.163 46.8708 520.454 46.2798 533.48 45.8164C546.506 45.3529 559.852 44.946 573.519 44.5956C587.186 44.2452 602.975 44.0247 620.887 43.9342C638.799 43.8437 657.751 43.6872 677.745 43.4647C697.738 43.2421 717.683 43.1017 737.581 43.0432C757.478 42.9848 778.004 42.9579 799.16 42.9626C820.315 42.9674 841.988 42.9815 864.177 43.0051C886.367 43.0287 908.673 42.9328 931.096 42.7174C953.52 42.502 976.357 42.2333 999.607 41.9114C1022.86 41.5894 1046.02 41.243 1069.1 40.8723C1092.18 40.5016 1114.34 40.001 1135.59 39.3705C1156.84 38.7399 1179.57 38.2879 1203.79 38.0143C1228.01 37.7408 1252.02 37.4284 1275.8 37.077C1299.59 36.7256 1320.67 36.4755 1339.06 36.3266C1357.45 36.1777 1374.88 36.0726 1391.36 36.0112C1407.84 35.9497 1423.9 35.9291 1439.54 35.9492C1455.18 35.9694 1469.62 36.0987 1482.87 36.3372C1496.12 36.5758 1507.34 36.8002 1516.52 37.0107C1525.7 37.2211 1533.77 37.4815 1540.73 37.7919C1547.68 38.1023 1554.65 38.647 1561.65 39.426C1568.64 40.205 1575.1 41.1126 1581.02 42.1487C1586.94 43.1849 1593.02 44.3224 1599.27 45.5613C1605.52 46.8002 1610.91 48.2793 1615.44 49.9988C1619.97 51.7182 1622.23 52.5762 1622.23 52.5728C1622.23 52.5695 1622.23 52.5662 1622.23 52.5628C1622.23 52.5595 1621.6 52.7804 1620.35 53.2256C1619.1 53.6708 1615.28 54.2605 1608.88 54.9947C1602.48 55.7289 1594.27 56.4817 1584.25 57.2531C1574.24 58.0246 1566.22 58.5582 1560.2 58.8541C1554.18 59.15 1547.7 59.4552 1540.76 59.7698C1533.82 60.0845 1525.77 60.352 1516.59 60.5724C1507.42 60.7928 1496.23 61.0341 1483.02 61.2961C1469.81 61.5581 1455.42 61.7268 1439.86 61.8022C1424.31 61.8777 1408.37 61.9497 1392.07 62.0184C1375.76 62.087 1358.54 62.1999 1340.4 62.3572C1322.27 62.5144 1301.24 62.7774 1277.33 63.1461C1253.41 63.5149 1229.7 63.8393 1206.19 64.1193C1182.68 64.3993 1160.05 64.8752 1138.3 65.547C1116.54 66.2189 1094.09 66.7607 1070.94 67.1725C1047.79 67.5843 1024.52 67.9794 1001.13 68.3576C977.732 68.7358 954.628 69.0705 931.816 69.3617C909.003 69.6529 886.536 69.8358 864.414 69.9104C842.292 69.9851 820.741 70.0848 799.76 70.2096C778.78 70.3344 758.535 70.5088 739.026 70.7328C719.517 70.9569 699.682 71.29 679.522 71.7321C659.362 72.1743 640.867 72.5616 624.037 72.8941C607.208 73.2265 592.233 73.7152 579.113 74.36C565.994 75.0049 553.548 75.696 541.778 76.4333C530.008 77.1706 518.65 78.0222 507.705 78.988C496.76 79.9538 486.556 80.8847 477.091 81.7807C467.627 82.6767 458.637 83.5637 450.123 84.4417C441.608 85.3196 433.303 86.1845 425.207 87.0363C417.111 87.888 409.326 88.7298 401.85 89.5614C394.375 90.3931 386.995 91.2164 379.711 92.0315C372.427 92.8465 362.549 93.8 350.076 94.892C337.604 95.984 326.313 96.8672 316.204 97.5416C306.095 98.216 297.971 98.5528 291.832 98.5521C285.693 98.5513 279.236 98.5122 272.461 98.4345C265.685 98.3569 259.251 97.8242 253.157 96.8366C247.063 95.8489 241.343 94.208 235.998 91.9139C230.652 89.6198 225.848 86.4678 221.585 82.4581C217.322 78.4484 214.185 74.5138 212.174 70.6541C210.163 66.7944 208.261 63.0803 206.468 59.5118C204.674 55.9434 202.76 52.4508 200.727 49.0341C198.693 45.6174 196.423 42.214 193.917 38.8239C191.41 35.4337 187.28 34.3431 181.526 35.5519C175.772 36.7607 169.784 38.1013 163.562 39.5739C157.341 41.0464 149.441 42.8986 139.861 45.1307C130.281 47.3627 122.611 49.1859 116.85 50.6001C111.09 52.0143 105.233 53.3952 99.2819 54.7429C93.3305 56.0905 87.234 57.4068 80.9925 58.6917C74.751 59.9766 68.3986 61.1885 61.9354 62.3275C55.4721 63.4664 47.661 64.8156 38.5019 66.3751C29.3428 67.9345 20.7868 68.5547 12.8339 68.2355C4.88094 67.9164 0.901349 67.7539 0.895105 67.7479L0.885742 67.739Z" fill="#097C3E"/>
</svg>
