<svg width="1501" height="140" viewBox="0 0 1501 140" fill="none" xmlns="http://www.w3.org/2000/svg">
<path d="M0.200559 139.622C0.200559 139.622 2.60726 136.734 7.42062 130.957C12.234 125.181 18.0061 120.362 24.737 116.502C31.4679 112.642 38.6193 108.933 46.1913 105.377C53.7632 101.82 60.7306 98.5685 67.0934 95.6229C73.4561 92.6773 80.623 89.8581 88.594 87.1653C96.5649 84.4726 106.221 81.7267 117.562 78.9276C128.904 76.1286 140.081 73.2553 151.094 70.3076C162.107 67.3599 172.739 64.6685 182.991 62.2334C193.243 59.7983 203.567 57.3984 213.962 55.0339C224.358 52.6694 234.519 50.3077 244.446 47.9489C254.373 45.59 264.375 43.342 274.453 41.2047C284.532 39.0675 294.636 37.1378 304.765 35.4157C314.894 33.6936 324.63 32.0588 333.971 30.5114C343.312 28.964 352.532 27.4377 361.631 25.9324C370.729 24.4272 379.923 23.0624 389.211 21.8381C398.5 20.6138 408.047 19.419 417.854 18.2537C427.66 17.0883 437.522 16.0235 447.44 15.0592C457.357 14.0949 467.677 13.2159 478.4 12.4221C489.122 11.6284 499.814 10.7287 510.477 9.72314C521.141 8.71756 532.298 7.81613 543.95 7.01888C555.601 6.22162 567.178 5.61722 578.679 5.20562C590.181 4.79403 601.421 4.31611 612.402 3.77188C623.382 3.22766 634.389 2.64849 645.422 2.03441C656.454 1.42033 667.747 1.09886 679.299 1.06997C690.851 1.04108 702.337 1.0085 713.757 0.972206C725.178 0.935909 737.142 0.932094 749.65 0.960772C762.158 0.989449 776.189 1.14531 791.743 1.42833C807.297 1.71135 822.422 2.11373 837.119 2.63554C851.815 3.15734 865.195 3.63302 877.257 4.06257C889.319 4.49211 901.514 4.96039 913.84 5.46733C926.166 5.97427 939.058 6.6999 952.516 7.64423C965.974 8.58857 979.219 9.4337 992.249 10.1796C1005.28 10.9255 1018.03 11.7649 1030.49 12.6979C1042.96 13.6308 1055.29 14.4485 1067.49 15.151C1079.69 15.8534 1092.06 16.6816 1104.62 17.6354C1117.17 18.5893 1129.04 19.532 1140.23 20.4636C1151.42 21.3952 1161.91 22.2814 1171.69 23.1223C1181.47 23.9631 1191.58 24.8462 1202.02 25.7715C1212.46 26.6969 1223.25 27.6568 1234.39 28.6514C1245.52 29.646 1255.97 30.5775 1265.72 31.446C1275.48 32.3145 1284.53 33.0261 1292.88 33.5807C1301.23 34.1354 1308.9 34.7553 1315.89 35.4405C1322.87 36.1256 1329.73 36.9087 1336.46 37.7897C1343.19 38.6706 1349.69 39.5832 1355.95 40.5274C1362.2 41.4716 1368.6 42.6776 1375.13 44.1453C1381.66 45.6129 1387.67 46.9548 1393.17 48.1707C1398.67 49.3867 1404.34 50.8665 1410.18 52.6101C1416.01 54.3537 1421.55 56.1874 1426.79 58.1111C1432.03 60.0349 1438.49 62.5273 1446.19 65.5884C1453.89 68.6494 1460.31 71.5176 1465.45 74.1932C1470.6 76.8687 1475.23 79.7911 1479.33 82.9605C1483.43 86.1298 1487.18 89.1326 1490.58 91.9687C1493.98 94.8049 1496.48 97.5994 1498.08 100.352C1499.69 103.105 1500.49 104.482 1500.48 104.482C1500.48 104.482 1500.47 104.482 1500.47 104.481C1500.46 104.481 1499.24 104.204 1496.79 103.648C1494.35 103.092 1490.35 102.581 1484.79 102.113C1479.23 101.646 1472.86 100.895 1465.7 99.8598C1458.53 98.8251 1451.73 97.9336 1445.3 97.1853C1438.86 96.437 1433.05 95.6715 1427.86 94.8888C1422.66 94.1061 1417.54 93.183 1412.49 92.1194C1407.44 91.0558 1402.48 89.9885 1397.63 88.9175C1392.77 87.8464 1387.28 86.7146 1381.14 85.5222C1375.01 84.3298 1369.34 83.0852 1364.12 81.7884C1358.9 80.4917 1353.35 79.2586 1347.46 78.0893C1341.57 76.9201 1335.52 75.7406 1329.29 74.551C1323.07 73.3614 1317.01 72.2128 1311.11 71.1052C1305.21 69.9976 1298.11 68.9748 1289.8 68.0368C1281.48 67.0988 1272.45 66.1916 1262.7 65.3151C1252.95 64.4386 1242.52 63.5049 1231.4 62.5142C1220.28 61.5234 1209.52 60.5687 1199.11 59.65C1188.71 58.7313 1178.65 57.8483 1168.93 57.0009C1159.22 56.1535 1148.83 55.2697 1137.79 54.3495C1126.74 53.4293 1115.12 52.5045 1102.93 51.5751C1090.73 50.6457 1078.37 49.8187 1065.83 49.0941C1053.29 48.3695 1040.96 47.5525 1028.85 46.643C1016.73 45.7335 1004.03 44.8978 990.737 44.136C977.447 43.3742 964.362 42.5378 951.482 41.6266C938.603 40.7154 926.055 40.0091 913.838 39.5076C901.622 39.0061 889.483 38.5415 877.421 38.1137C865.359 37.6859 852.151 37.2169 837.797 36.7066C823.443 36.1964 808.647 35.8031 793.409 35.5265C778.171 35.25 764.353 35.0997 751.955 35.0755C739.557 35.0513 727.63 35.0605 716.175 35.1031C704.719 35.1458 693.747 35.1705 683.259 35.1774C672.771 35.1843 661.955 35.5037 650.811 36.1357C639.668 36.7677 628.471 37.3698 617.222 37.942C605.972 38.5143 594.921 39.0004 584.066 39.4003C573.212 39.8002 562.217 40.393 551.083 41.1785C539.949 41.964 528.866 42.8966 517.836 43.9764C506.805 45.0562 496.17 46.0006 485.93 46.8095C475.691 47.6184 465.845 48.5184 456.391 49.5096C446.937 50.5007 437.329 51.6298 427.566 52.8967C417.803 54.1637 408.599 55.306 399.955 56.3238C391.311 57.3416 382.461 58.5629 373.405 59.9876C364.349 61.4124 355.22 62.8809 346.018 64.3933C336.816 65.9057 327.55 67.4835 318.222 69.1266C308.893 70.7698 299.448 72.653 289.887 74.7765C280.325 76.9 270.541 79.2218 260.534 81.7418C250.526 84.2619 240.473 86.762 230.375 89.2423C220.277 91.7226 210.434 94.2159 200.845 96.7221C191.257 99.2282 180.781 102.159 169.418 105.515C158.055 108.871 147.029 111.936 136.339 114.711C125.649 117.485 116.633 119.718 109.293 121.41C101.952 123.101 94.6178 124.883 87.2902 126.754C79.9626 128.626 72.1922 130.435 63.9789 132.183C55.7656 133.93 47.6888 135.62 39.7484 137.252C31.808 138.884 23.2346 139.691 14.0281 139.673C4.82151 139.654 0.215273 139.641 0.209395 139.633L0.200559 139.622Z" fill="#000000"/>
</svg>
