<svg width="1872" height="140" viewBox="0 0 1872 140" fill="none" xmlns="http://www.w3.org/2000/svg">
<path d="M0 115.098C0 115.098 4.38588 112.405 13.1576 107.02C21.9294 101.634 30.0637 98.518 37.5605 97.6707C45.0573 96.8234 54.2356 96.0779 65.0953 95.4342C75.955 94.7906 86.4916 94.2773 96.7052 93.8946C106.919 93.5119 117.13 93.1785 127.338 92.8946C137.546 92.6106 149.778 92.364 164.035 92.1547C178.291 91.9454 192.565 91.7641 206.856 91.6106C221.147 91.457 234.761 91.3242 247.7 91.2121C260.638 91.1 273.87 90.3407 287.394 88.9341C300.918 87.5275 314.821 85.475 329.103 82.7766C343.384 80.0781 364.364 75.9844 392.04 70.4956C419.717 65.0067 441.345 60.54 456.926 57.0956C472.506 53.6512 486.029 50.5578 497.493 47.8154C508.957 45.0731 521.068 42.6089 533.828 40.423C546.587 38.2371 558.675 35.5212 570.091 32.2753C581.507 29.0293 592.614 26.2979 603.411 24.081C614.208 21.8642 624.713 19.7226 634.926 17.6563C645.139 15.5899 654.122 14.1412 661.875 13.3102C669.628 12.4791 676.907 11.697 683.712 10.9637C690.517 10.2305 699.21 8.97775 709.792 7.20555C720.373 5.43336 730.753 3.74081 740.932 2.12781C751.111 0.514816 758.639 -0.181155 763.517 0.0399954C768.395 0.261145 773.681 0.705357 779.375 1.37257C785.068 2.03978 789.626 2.68693 793.047 3.31397C796.468 3.94101 799.543 4.50598 802.271 5.00897C804.999 5.51195 807.725 5.98334 810.447 6.42305C813.169 6.86275 815.554 7.25358 817.601 7.59554C819.649 7.93751 821.741 8.38745 823.878 8.94535C826.014 9.50325 828.485 10.9653 831.29 13.3316C834.094 15.6978 835.78 18.4853 836.347 21.6939C836.915 24.9026 837.123 26.7818 836.972 27.3315C836.821 27.8813 836.862 28.5595 837.094 29.3663C837.326 30.173 837.058 32.433 836.29 36.1462C835.522 39.8594 834.216 43.0187 832.373 45.6243C830.53 48.2299 829.321 50.2416 828.747 51.6596C828.173 53.0776 826.64 55.4514 824.15 58.7809C821.66 62.1104 819.779 64.9395 818.507 67.2681C817.236 69.5967 815.795 71.874 814.184 74.0999C812.574 76.3259 811.037 78.4346 809.574 80.4259C808.111 82.4173 807.051 83.9727 806.395 85.0921C805.738 86.2114 805.027 87.4343 804.262 88.7606C803.497 90.087 802.743 91.3777 802.001 92.6328C801.259 93.8878 800.941 94.5214 801.046 94.5333C801.151 94.5452 801.179 94.8873 801.13 95.5595C801.081 96.2318 801.057 96.5708 801.056 96.5766C801.056 96.5825 801.032 96.7797 800.985 97.1682C800.938 97.5567 800.846 97.9339 800.709 98.2999C800.571 98.6658 800.392 99.0098 800.171 99.3319C799.951 99.654 799.695 99.9448 799.405 100.204C799.114 100.464 798.797 100.685 798.454 100.866C798.11 101.048 797.75 101.186 797.373 101.28C796.996 101.373 796.614 101.42 796.225 101.42C795.837 101.42 795.455 101.373 795.078 101.28C794.701 101.186 794.341 101.048 793.997 100.866C793.654 100.684 793.337 100.464 793.046 100.204C792.756 99.9444 792.5 99.6536 792.28 99.3315C792.059 99.0094 791.88 98.6654 791.743 98.2994C791.605 97.9335 791.513 97.5562 791.466 97.1677C791.42 96.7792 792.538 95.7969 794.823 94.2209C797.108 92.6449 798.928 91.8922 800.283 91.9629C801.638 92.0336 803.334 92.1036 805.369 92.1729C807.405 92.2422 810.119 92.2809 813.51 92.289C816.901 92.2971 820.972 92.2353 825.724 92.1036C830.476 91.972 835.909 91.7296 842.022 91.3765C848.135 91.0234 854.591 90.607 861.39 90.1273C868.189 89.6476 875.87 88.5017 884.433 86.6896C892.996 84.8775 904.081 83.0684 917.687 81.2622C931.293 79.456 945.443 77.4258 960.137 75.1716C974.831 72.9174 988.929 70.7554 1002.43 68.6854C1015.93 66.6154 1030.66 64.9531 1046.62 63.6984C1062.57 62.4438 1079.61 60.9376 1097.73 59.1799C1115.85 57.4222 1135.13 55.7055 1155.56 54.03C1175.99 52.3544 1197.09 50.7188 1218.88 49.1232C1240.66 47.5276 1262.78 45.962 1285.24 44.4263C1307.69 42.8906 1330.61 41.7117 1353.98 40.8898C1377.35 40.0678 1400.48 38.9353 1423.39 37.4921C1446.29 36.0489 1469.09 34.9446 1491.77 34.1793C1514.46 33.414 1536.35 32.6655 1557.44 31.9336C1578.53 31.2018 1599.76 30.8141 1621.12 30.7706C1642.47 30.7271 1663.36 30.6932 1683.79 30.6689C1704.21 30.6446 1722.27 30.6236 1737.96 30.606C1753.65 30.5884 1765.95 30.6285 1774.86 30.7265C1783.76 30.8244 1790.95 31.3625 1796.43 32.3408C1801.9 33.319 1807.36 34.1945 1812.8 34.9672C1818.25 35.74 1824.04 36.3804 1830.17 36.8887C1836.3 37.3969 1841.84 38.3336 1846.78 39.6989C1851.72 41.0642 1855.69 42.3731 1858.69 43.6256C1861.69 44.8782 1863.77 45.7674 1864.93 46.2935C1866.08 46.8195 1867.64 47.786 1869.58 49.1928C1871.53 50.5997 1872.11 53.3572 1871.31 57.4652C1870.52 61.5733 1870.12 63.6273 1870.12 63.6274C1870.11 63.6274 1870.11 63.6275 1870.1 63.6275C1870.1 63.6276 1868.33 64.9954 1864.8 67.7309C1861.28 70.4665 1859.8 71.8572 1860.37 71.9031C1860.95 71.949 1860.44 72.2291 1858.85 72.7435C1857.27 73.2578 1855.24 73.4551 1852.77 73.3352C1850.3 73.2153 1847.43 73.1576 1844.18 73.1621C1840.92 73.1665 1836.24 73.4228 1830.13 73.9311C1824.02 74.4393 1818.25 75.0798 1812.8 75.8525C1807.36 76.6252 1801.9 77.5007 1796.43 78.479C1790.95 79.4572 1783.76 79.9953 1774.86 80.0932C1765.95 80.1912 1753.65 80.2314 1737.96 80.2137C1722.27 80.1961 1704.21 80.1752 1683.79 80.151C1663.37 80.1267 1642.74 80.0987 1621.91 80.0669C1601.07 80.035 1580.09 80.3395 1558.97 80.9803C1537.84 81.6211 1516.16 82.2509 1493.92 82.8696C1471.68 83.4884 1448.87 84.4429 1425.5 85.7332C1402.13 87.0235 1379 87.9498 1356.1 88.512C1333.21 89.0742 1310.54 89.96 1288.09 91.1694C1265.64 92.3787 1243.55 93.5581 1221.8 94.7075C1200.05 95.857 1178.99 96.9664 1158.62 98.0357C1138.26 99.1051 1118.78 100.128 1100.2 101.103C1081.62 102.079 1064.67 102.632 1049.36 102.761C1034.04 102.891 1019.51 103.293 1005.77 103.968C992.03 104.643 977.547 105.22 962.321 105.699C947.095 106.178 932.715 106.201 919.181 105.767C905.647 105.334 894.332 104.891 885.236 104.44C876.14 103.989 868.192 103.523 861.392 103.043C854.592 102.564 848.135 102.147 842.022 101.794C835.909 101.441 830.476 101.199 825.724 101.067C820.972 100.936 816.901 100.874 813.51 100.882C810.119 100.89 807.405 100.929 805.369 100.998C803.334 101.067 801.638 101.137 800.283 101.208C798.927 101.279 798.717 100.526 799.653 98.9494C800.588 97.3731 801.032 96.7797 800.985 97.1682C800.938 97.5567 800.846 97.9339 800.709 98.2999C800.571 98.6658 800.392 99.0098 800.171 99.3319C799.951 99.654 799.695 99.9448 799.405 100.204C799.114 100.464 798.797 100.685 798.454 100.866C798.11 101.048 797.75 101.186 797.373 101.28C796.996 101.373 796.614 101.42 796.225 101.42C795.837 101.42 795.455 101.373 795.078 101.28C794.701 101.186 794.341 101.048 793.997 100.866C793.654 100.684 793.337 100.464 793.046 100.204C792.756 99.9444 792.5 99.6536 792.28 99.3315C792.059 99.0094 791.88 98.6654 791.743 98.2994C791.605 97.9335 791.513 97.5562 791.466 97.1677C791.419 96.7792 791.396 96.5825 791.395 96.5766C791.395 96.5708 791.37 96.2176 791.321 95.5172C791.272 94.8167 791.306 93.7804 791.423 92.4081C791.54 91.0358 791.908 89.6047 792.527 88.1147C793.146 86.6248 793.753 85.1704 794.349 83.7516C794.945 82.3328 795.601 80.8048 796.317 79.1674C797.033 77.5301 798.021 75.6482 799.28 73.522C800.539 71.3957 801.725 69.3809 802.836 67.4777C803.948 65.5745 805.235 63.0422 806.697 59.8808C808.159 56.7194 809.675 54.0643 811.245 51.9154C812.815 49.7665 813.999 47.3423 814.797 44.6427C815.595 41.9432 816.428 39.8374 817.295 38.3255C818.162 36.8136 818.881 35.8614 819.451 35.4688C820.021 35.0762 819.747 33.9165 818.63 31.9898C817.512 30.063 816.878 28.6825 816.727 27.8482C816.576 27.0139 816.779 26.8344 817.334 27.3098C817.89 27.7851 818.884 28.5255 820.315 29.5309C821.747 30.5363 822.165 31.318 821.568 31.8759C820.971 32.4338 819.649 32.8837 817.601 33.2257C815.554 33.5677 813.169 33.9585 810.447 34.3982C807.725 34.8379 805 35.3093 802.272 35.8123C799.544 36.3153 796.476 36.8803 793.069 37.5075C789.662 38.1346 786.041 38.7877 782.206 39.4666C778.372 40.1456 774.083 41.2878 769.341 42.8931C764.599 44.4984 757.11 45.8671 746.873 46.9991C736.636 48.1312 726.63 49.1836 716.853 50.1565C707.076 51.1294 698.779 52.6217 691.961 54.6336C685.143 56.6455 678.102 58.6142 670.837 60.5399C663.571 62.4656 654.837 64.4541 644.634 66.5055C634.43 68.5569 624.502 70.5446 614.849 72.4684C605.195 74.3922 593.827 77.1508 580.744 80.7443C567.661 84.3377 555.255 87.1062 543.526 89.0496C531.797 90.993 520.06 93.3445 508.315 96.1042C496.569 98.8638 482.731 101.97 466.801 105.423C450.871 108.876 428.952 113.324 401.044 118.769C373.137 124.213 351.358 128.319 335.708 131.087C320.058 133.855 304.715 135.897 289.68 137.212C274.645 138.527 260.655 139.129 247.71 139.017C234.765 138.905 221.147 138.772 206.856 138.618C192.565 138.465 178.291 138.283 164.035 138.074C149.778 137.865 137.546 137.618 127.338 137.334C117.13 137.05 106.919 136.717 96.7052 136.334C86.4916 135.951 75.955 135.438 65.0953 134.795C54.2356 134.151 45.0573 133.405 37.5605 132.558C30.0637 131.711 21.9294 128.594 13.1576 123.209C4.38588 117.823 0 115.125 0 115.114V115.098Z" fill="#EBCE3F"/>
</svg>
